<?xml version="1.0" standalone="no"?>
<!DOCTYPE svg PUBLIC "-//W3C//DTD SVG 20010904//EN"
 "http://www.w3.org/TR/2001/REC-SVG-20010904/DTD/svg10.dtd">
<svg version="1.0" xmlns="http://www.w3.org/2000/svg"
 width="512.000000pt" height="512.000000pt" viewBox="0 0 512.000000 512.000000"
 preserveAspectRatio="xMidYMid meet">

<g transform="translate(0.000000,512.000000) scale(0.100000,-0.100000)"
fill="#000000" stroke="none">
<path d="M804 4391 c-47 -12 -133 -62 -160 -94 -14 -17 -37 -53 -52 -81 l-27
-51 -3 -761 -2 -762 -123 -4 c-116 -4 -125 -6 -185 -38 -70 -37 -100 -68 -140
-144 l-27 -51 0 -725 0 -725 27 -51 c40 -76 70 -107 140 -145 l63 -34 485 0
485 0 63 34 c70 38 101 70 140 145 25 48 26 61 30 213 l4 163 348 0 348 0 -20
-80 -20 -80 -145 0 c-139 0 -145 -1 -168 -25 -24 -23 -25 -28 -25 -175 0 -147
1 -152 25 -176 l24 -24 1458 2 1458 3 51 27 c76 40 107 70 145 140 l34 63 0
1125 0 1125 -34 63 c-38 70 -70 101 -145 139 -45 23 -66 27 -173 31 l-122 4
-3 362 -3 361 -34 63 c-38 70 -69 100 -145 140 l-51 27 -1745 2 c-960 0 -1759
-2 -1776 -6z m3500 -165 c18 -8 46 -31 62 -52 l29 -37 3 -348 3 -348 -603 -3
-603 -3 -51 -27 c-76 -40 -107 -70 -145 -140 l-34 -63 -3 -682 -3 -683 -719 0
-719 0 -3 282 -3 283 -34 63 c-38 70 -69 100 -145 140 l-51 27 -282 3 -283 3
0 734 c0 495 3 743 11 762 14 37 47 73 84 89 46 20 3440 20 3489 0z m480 -960
c18 -8 46 -31 62 -52 l29 -37 0 -1098 c0 -1093 0 -1098 -21 -1125 -11 -15 -33
-37 -48 -48 -27 -21 -35 -21 -805 -21 l-778 0 -37 29 c-70 53 -66 -18 -66
1165 0 733 3 1079 11 1098 14 37 47 73 84 89 45 20 1521 20 1569 0z m-4247
-891 c19 -59 42 -107 54 -117 19 -16 45 -18 209 -18 164 0 190 2 209 18 12 10
35 58 54 117 l34 100 66 3 c81 4 125 -13 163 -64 l29 -37 0 -698 c0 -689 0
-698 -21 -725 -11 -15 -33 -37 -48 -48 -27 -21 -38 -21 -485 -21 l-458 0 -37
29 c-68 52 -66 23 -66 765 0 450 3 679 11 698 27 72 85 104 183 100 l69 -2 34
-100z m379 68 l-13 -38 -103 0 -103 0 -13 38 -13 37 129 0 129 0 -13 -37z
m2044 -883 l0 -120 -720 0 -720 0 0 120 0 120 720 0 720 0 0 -120z m-202 -360
l20 -80 -218 0 -218 0 20 80 20 80 178 0 178 0 20 -80z m202 0 c0 -44 -4 -80
-9 -80 -5 0 -18 36 -29 80 l-20 80 29 0 29 0 0 -80z m23 -275 c9 -20 17 -38
17 -40 0 -3 -225 -5 -500 -5 l-500 0 0 40 0 40 483 0 483 0 17 -35z"/>
<path d="M3225 3175 l-25 -24 0 -951 0 -951 25 -24 24 -25 751 0 751 0 24 25
25 24 0 951 0 951 -25 24 -24 25 -751 0 -751 0 -24 -25z m1415 -975 l0 -840
-640 0 -640 0 0 840 0 840 640 0 640 0 0 -840z"/>
<path d="M3865 1095 c-50 -49 -15 -135 55 -135 41 0 80 39 80 80 0 41 -39 80
-80 80 -19 0 -40 -9 -55 -25z"/>
<path d="M345 1095 c-16 -15 -25 -36 -25 -55 0 -19 9 -40 25 -55 23 -24 28
-25 175 -25 147 0 152 1 175 25 16 15 25 36 25 55 0 19 -9 40 -25 55 -23 24
-28 25 -175 25 -147 0 -152 -1 -175 -25z"/>
<path d="M825 1095 c-16 -15 -25 -36 -25 -55 0 -19 9 -40 25 -55 21 -22 33
-25 95 -25 62 0 74 3 95 25 33 32 33 78 0 110 -21 22 -33 25 -95 25 -62 0 -74
-3 -95 -25z"/>
</g>
</svg>
