<?xml version="1.0" standalone="no"?>
<!DOCTYPE svg PUBLIC "-//W3C//DTD SVG 20010904//EN"
 "http://www.w3.org/TR/2001/REC-SVG-20010904/DTD/svg10.dtd">
<svg version="1.0" xmlns="http://www.w3.org/2000/svg"
 width="512.000000pt" height="512.000000pt" viewBox="0 0 512.000000 512.000000"
 preserveAspectRatio="xMidYMid meet">

<g transform="translate(0.000000,512.000000) scale(0.100000,-0.100000)"
fill="#000000" stroke="none">
<path d="M2480 4954 c-75 -20 -153 -69 -209 -130 l-47 -52 -225 -4 c-205 -5
-231 -7 -314 -32 -105 -31 -258 -105 -369 -178 -205 -136 -359 -354 -428 -606
-18 -66 -22 -116 -27 -342 l-6 -265 -216 -5 c-232 -5 -236 -6 -265 -61 -11
-23 -14 -95 -14 -392 l0 -364 -70 -72 c-295 -300 -371 -742 -194 -1120 53
-113 113 -199 199 -285 l65 -65 0 -361 c0 -397 2 -415 59 -444 24 -13 69 -16
244 -16 210 0 214 0 235 23 27 29 28 67 3 98 -19 23 -24 24 -205 27 l-186 3 0
283 0 284 87 -38 c263 -113 559 -111 809 5 l74 34 0 -285 0 -284 -170 0 c-194
0 -223 -8 -235 -61 -5 -23 -2 -38 13 -58 l19 -26 215 -3 c126 -1 227 2 242 8
14 5 35 24 46 42 19 31 20 51 20 401 l0 367 42 38 c55 49 147 166 189 239 18
32 50 101 69 153 l36 95 85 5 c97 6 135 26 164 85 13 30 16 60 13 168 -3 119
-5 135 -26 165 -34 47 -76 65 -164 70 l-78 5 -11 41 c-16 62 -81 196 -129 266
-24 35 -76 98 -116 140 l-73 76 -3 378 -3 378 -33 29 c-18 16 -43 29 -57 29
-35 0 -33 34 4 71 51 51 141 29 155 -39 12 -55 47 -492 53 -662 3 -96 10 -183
15 -193 22 -43 105 -41 128 4 20 36 10 270 -29 699 -20 219 -31 253 -101 312
-64 55 -147 72 -234 46 -61 -18 -139 -100 -155 -163 -7 -27 -15 -56 -17 -62
-2 -10 -46 -13 -174 -13 l-170 0 0 230 c0 262 10 336 65 463 51 120 93 183
178 273 86 91 168 149 302 217 148 75 211 89 423 94 130 4 182 2 182 -6 0 -6
-25 -149 -56 -318 -42 -236 -53 -313 -45 -330 6 -13 51 -49 101 -80 49 -32 90
-61 90 -65 0 -4 -36 -93 -81 -198 -57 -133 -79 -198 -75 -214 3 -13 188 -214
410 -447 l405 -424 0 -857 1 -858 -487 0 c-269 0 -505 3 -525 6 -38 7 -38 7
-38 54 0 64 -24 94 -75 94 -55 0 -75 -29 -75 -111 0 -79 25 -132 77 -164 l38
-24 1115 -3 c613 -2 1138 0 1167 3 57 7 104 34 137 78 25 34 25 28 6 692 -8
259 -15 697 -15 975 0 445 3 531 22 727 12 123 27 231 33 242 24 45 86 64 131
41 51 -28 49 14 49 -1163 0 -1063 1 -1095 19 -1118 l19 -24 287 0 287 0 19 24
c19 23 19 51 17 1365 l-3 1341 -27 97 c-48 173 -148 355 -252 457 -53 52 -97
60 -128 22 -31 -39 -23 -75 29 -133 95 -108 161 -228 207 -383 21 -69 21 -84
24 -1357 l3 -1288 -176 0 -175 0 0 1048 c0 1160 3 1110 -64 1189 -50 58 -123
87 -201 81 -70 -6 -109 -24 -156 -70 -64 -65 -68 -86 -110 -608 -13 -156 -7
-882 11 -1495 5 -181 11 -388 12 -460 l3 -130 -525 0 -525 0 -2 850 -3 850
286 300 c546 573 535 561 536 592 1 15 -35 113 -80 216 l-81 188 87 55 c100
64 112 77 112 119 0 25 -89 542 -104 609 -4 17 4 18 182 14 171 -4 194 -7 272
-33 47 -15 120 -45 162 -66 43 -22 84 -39 91 -39 28 0 67 41 67 70 0 47 -9 59
-75 96 -166 92 -313 124 -572 124 l-185 0 -57 59 c-59 62 -133 105 -216 127
-76 21 -928 19 -1005 -2z m1021 -160 c55 -26 111 -80 139 -133 15 -31 103
-470 122 -610 3 -20 -11 -32 -94 -85 -141 -88 -139 -73 -34 -322 l88 -205 -68
-72 c-179 -190 -567 -597 -570 -597 -2 0 13 44 32 97 192 525 433 1325 451
1493 6 64 -9 143 -39 204 -31 60 -111 139 -175 172 l-58 29 -305 0 -305 0 -60
-29 c-126 -62 -205 -179 -213 -316 -4 -63 2 -101 32 -225 71 -290 256 -883
397 -1275 27 -74 49 -138 49 -142 0 -4 -142 141 -315 323 -173 182 -315 335
-315 341 0 5 36 94 81 198 104 243 105 235 -21 317 -52 35 -99 64 -103 66 -5
1 16 139 47 306 47 260 59 310 83 349 36 58 89 100 155 123 49 17 87 19 503
16 435 -2 452 -3 496 -23z m-215 -193 c75 -34 134 -126 134 -210 0 -41 -76
-337 -151 -586 -67 -223 -267 -826 -278 -838 -8 -9 -206 576 -291 863 -82 275
-140 509 -140 564 0 86 47 163 123 201 51 25 53 25 306 25 227 0 261 -3 297
-19z m-1806 -1694 l0 -283 -57 27 c-270 128 -601 127 -861 -5 l-52 -26 0 285
0 285 485 0 485 0 0 -283z m-274 -337 c314 -79 560 -342 621 -664 20 -107 13
-283 -16 -384 -87 -302 -326 -525 -640 -598 -97 -23 -276 -20 -376 6 -477 123
-753 617 -603 1080 98 302 367 531 680 579 87 14 239 5 334 -19z m874 -815 l0
-95 -45 0 -45 0 0 95 0 95 45 0 45 0 0 -95z"/>
<path d="M964 2359 c-41 -20 -44 -47 -44 -343 0 -271 1 -284 21 -310 l20 -26
154 0 154 0 20 26 c27 35 26 57 -3 91 -23 26 -29 28 -120 31 l-96 4 0 243 c0
217 -2 245 -17 263 -22 26 -61 35 -89 21z"/>
<path d="M3265 2215 c-52 -51 -13 -125 65 -125 30 0 47 6 65 25 52 51 13 125
-65 125 -30 0 -47 -6 -65 -25z"/>
<path d="M3285 1768 c-49 -26 -58 -69 -24 -112 19 -24 27 -27 72 -24 40 2 54
8 70 29 50 68 -40 150 -118 107z"/>
</g>
</svg>
