<?xml version="1.0" standalone="no"?>
<!DOCTYPE svg PUBLIC "-//W3C//DTD SVG 20010904//EN"
 "http://www.w3.org/TR/2001/REC-SVG-20010904/DTD/svg10.dtd">
<svg version="1.0" xmlns="http://www.w3.org/2000/svg"
 width="512.000000pt" height="512.000000pt" viewBox="0 0 512.000000 512.000000"
 preserveAspectRatio="xMidYMid meet">

<g transform="translate(0.000000,512.000000) scale(0.100000,-0.100000)"
fill="#000000" stroke="none">
<path d="M2590 4930 l-28 -30 -70 12 c-139 24 -261 -21 -365 -132 -137 -146
-223 -369 -215 -560 5 -107 22 -153 80 -206 57 -54 94 -67 198 -72 144 -6 281
32 435 121 196 113 293 292 253 469 l-15 66 24 11 c48 22 50 96 2 121 -12 7
-36 9 -56 5 l-36 -6 22 27 c27 35 27 65 -2 92 -29 28 -61 28 -99 0 -30 -21
-30 -21 -19 0 17 33 13 61 -14 87 -32 33 -61 31 -95 -5z m-42 -182 c26 -12 70
-45 97 -73 88 -87 120 -189 91 -287 -28 -97 -104 -169 -251 -239 -102 -48
-185 -69 -270 -69 -122 0 -165 42 -165 162 1 186 128 438 255 506 71 37 162
37 243 0z"/>
<path d="M2356 4679 c-50 -39 -22 -119 42 -119 34 0 72 37 72 69 0 27 -42 71
-68 71 -11 0 -31 -9 -46 -21z"/>
<path d="M2155 4475 c-31 -30 -32 -65 -2 -93 30 -28 68 -28 95 1 30 32 28 71
-4 96 -35 27 -59 26 -89 -4z"/>
<path d="M2356 4479 c-17 -14 -26 -30 -26 -50 0 -65 80 -93 119 -43 27 35 26
59 -4 89 -30 30 -54 31 -89 4z"/>
<path d="M2552 4480 c-45 -42 -15 -120 47 -120 33 0 71 39 71 72 0 26 -44 68
-73 68 -13 0 -33 -9 -45 -20z"/>
<path d="M2152 4277 c-28 -29 -28 -57 -1 -91 26 -33 68 -34 97 -3 28 30 28 68
-1 95 -30 28 -68 28 -95 -1z"/>
<path d="M2352 4277 c-12 -13 -22 -35 -22 -48 0 -32 39 -69 72 -69 29 0 68 41
68 70 0 10 -9 29 -21 44 -26 33 -68 34 -97 3z"/>
<path d="M4195 4953 c-34 -9 -72 -41 -89 -77 -13 -27 -16 -68 -16 -199 0 -91
-3 -173 -6 -182 -4 -9 -33 -34 -64 -55 -32 -22 -75 -60 -95 -84 -20 -24 -92
-161 -159 -303 -255 -533 -441 -835 -705 -1148 -219 -258 -539 -536 -831 -720
l-93 -59 -69 38 c-182 99 -404 130 -586 82 l-53 -14 32 56 c106 190 262 338
458 437 71 35 77 36 113 24 47 -15 84 -2 98 36 19 50 -46 130 -103 128 -48 -1
-204 -72 -304 -139 -101 -67 -237 -198 -308 -298 l-48 -68 -22 91 c-32 130
-84 230 -159 305 -65 64 -301 219 -372 245 -37 13 -45 13 -87 -3 -27 -10 -56
-30 -68 -47 -37 -52 -35 -92 11 -244 65 -213 112 -308 217 -431 l43 -52 -66
-7 c-322 -34 -585 -255 -674 -565 -30 -104 -38 -294 -16 -416 79 -454 411
-879 781 -1000 78 -26 86 -27 345 -27 296 0 335 6 467 69 150 72 333 238 449
410 54 79 58 82 103 89 130 19 360 92 539 169 46 20 88 34 93 30 5 -3 9 -15 9
-27 0 -41 41 -171 80 -254 126 -270 349 -460 645 -549 82 -25 105 -28 260 -28
202 -1 280 16 440 94 248 120 433 330 518 587 82 248 69 509 -38 741 -59 127
-167 269 -258 342 -40 31 -45 41 -50 85 -9 80 -103 351 -149 434 -78 136 -277
319 -391 358 -73 25 -152 -9 -186 -81 -17 -34 -21 -61 -21 -137 0 -82 16 -193
34 -239 4 -11 -7 -20 -41 -35 -56 -22 -132 -95 -162 -153 -18 -35 -33 -46
-123 -90 -57 -27 -130 -70 -164 -95 -71 -54 -187 -174 -233 -241 -88 -128
-156 -314 -169 -464 l-7 -83 -109 -50 c-113 -53 -374 -144 -445 -155 l-41 -6
24 59 c57 139 93 354 82 483 -15 169 -77 338 -164 447 -23 29 -42 55 -42 57 0
3 48 38 108 78 526 353 901 752 1237 1318 74 124 238 444 352 685 74 157 85
171 193 248 26 19 54 51 68 77 20 41 22 58 22 217 l0 173 69 0 70 0 3 -202 c3
-233 3 -233 99 -335 50 -54 62 -75 84 -145 52 -170 69 -295 69 -513 0 -309
-51 -547 -182 -855 -49 -116 -49 -142 1 -170 24 -13 30 -13 55 0 64 36 193
393 243 675 30 170 33 505 6 655 -47 257 -85 356 -176 454 l-61 65 0 204 c0
195 -1 205 -23 238 -35 54 -77 69 -182 68 -49 -1 -99 -4 -110 -6z m-3270
-2129 c61 -38 133 -91 161 -119 83 -82 128 -201 142 -379 l8 -94 -27 14 c-58
30 -191 138 -233 190 -71 86 -104 153 -157 316 -27 83 -49 156 -49 161 0 5 10
3 23 -5 12 -8 72 -46 132 -84z m3128 -200 c160 -107 251 -241 323 -477 24 -77
42 -142 41 -144 -5 -4 -262 162 -307 198 -97 78 -148 196 -157 362 -6 101 -5
107 13 107 11 0 50 -21 87 -46z m-173 -538 c0 -89 3 -107 21 -130 25 -32 70
-35 99 -6 15 15 20 33 20 79 l0 59 68 -45 c37 -25 69 -50 71 -56 2 -6 -7 -41
-19 -78 -22 -64 -23 -68 -7 -93 39 -59 105 -38 140 44 l20 48 46 -25 c34 -18
56 -23 84 -20 34 5 44 0 95 -42 71 -60 159 -173 205 -266 257 -518 -43 -1125
-613 -1241 -100 -20 -279 -15 -375 12 -264 72 -492 273 -589 522 -64 163 -76
362 -32 535 61 239 225 445 443 556 l42 21 17 -61 c19 -66 60 -119 93 -119 27
0 71 43 71 68 0 11 -9 39 -20 63 -38 84 -21 168 45 235 68 68 75 63 75 -60z
m-2812 29 c42 -9 109 -31 148 -50 82 -40 105 -42 148 -16 54 33 183 71 264 78
175 13 374 -60 494 -181 230 -230 257 -585 74 -961 -137 -282 -355 -495 -585
-570 -45 -15 -94 -18 -270 -19 -245 -2 -308 4 -395 40 -293 123 -562 489 -631
859 -24 126 -16 281 19 391 100 311 412 493 734 429z"/>
<path d="M3466 1681 c-25 -28 -17 -79 16 -104 64 -48 135 45 81 106 -21 23
-75 22 -97 -2z"/>
<path d="M3651 1414 c-27 -35 -26 -59 4 -89 27 -28 45 -31 78 -14 29 16 37 28
37 62 0 63 -80 90 -119 41z"/>
<path d="M3310 1232 c-49 -15 -68 -83 -32 -115 21 -19 64 -22 92 -7 23 12 35
62 21 88 -12 22 -58 41 -81 34z"/>
<path d="M1347 4035 c-181 -50 -334 -206 -382 -391 -47 -181 13 -384 154 -516
108 -103 220 -148 366 -148 150 0 276 51 380 155 105 105 156 229 156 380 0
54 -7 112 -17 145 -53 180 -194 321 -373 374 -66 19 -215 20 -284 1z m308
-160 c76 -37 153 -113 191 -190 27 -55 29 -69 29 -170 0 -101 -2 -115 -29
-170 -38 -77 -114 -153 -191 -191 -55 -26 -69 -29 -165 -29 -97 0 -110 2 -170
31 -83 40 -151 107 -192 192 -31 62 -33 74 -33 167 0 93 2 105 33 167 51 104
125 169 241 214 24 9 68 13 131 11 80 -3 104 -8 155 -32z"/>
<path d="M1352 3804 c-27 -18 -30 -78 -6 -105 15 -16 15 -20 0 -41 -52 -73 26
-154 95 -99 24 19 25 19 48 0 69 -56 155 35 96 101 -18 19 -18 21 0 40 59 66
-27 157 -96 101 -23 -19 -24 -19 -48 0 -29 23 -59 24 -89 3z"/>
<path d="M2979 4011 c-18 -15 -34 -17 -89 -13 -74 5 -112 -9 -166 -59 -28 -27
-33 -28 -63 -18 -44 15 -124 5 -167 -22 -78 -48 -118 -143 -96 -226 13 -45 12
-47 -17 -77 -55 -57 -76 -145 -51 -212 9 -24 7 -31 -19 -58 -43 -46 -61 -89
-61 -146 0 -125 83 -210 205 -210 67 0 110 17 149 58 24 26 32 29 53 21 66
-25 163 -2 218 51 29 28 33 29 70 19 152 -42 298 104 256 256 -10 36 -8 40 23
75 44 49 60 99 53 169 -4 46 -1 61 14 80 25 31 24 66 -2 92 -17 17 -30 20 -66
16 l-44 -5 20 22 c26 28 27 77 3 99 -25 23 -71 21 -98 -4 l-22 -20 5 44 c4 36
1 49 -16 66 -26 26 -61 27 -92 2z m-61 -167 c31 -22 30 -77 -4 -117 -19 -23
-24 -37 -19 -56 15 -60 60 -74 116 -37 69 46 129 25 129 -45 0 -28 -39 -69
-66 -69 -20 0 -54 -50 -54 -79 0 -15 11 -43 25 -63 31 -46 32 -72 0 -103 -31
-31 -51 -31 -97 0 -67 46 -107 32 -162 -55 -28 -46 -65 -51 -115 -16 -20 14
-44 26 -54 26 -34 0 -69 -25 -89 -64 -25 -49 -34 -56 -72 -56 -40 0 -66 26
-66 65 0 52 28 69 109 67 82 -3 140 17 176 60 23 27 28 29 57 19 73 -26 173
-1 216 54 28 35 28 63 0 92 -26 28 -64 29 -98 3 -14 -11 -35 -20 -48 -20 -28
0 -72 42 -72 68 0 11 -9 31 -21 46 -25 32 -64 34 -96 4 -19 -18 -23 -31 -23
-86 0 -47 -5 -71 -17 -84 -36 -40 -113 -8 -113 47 0 28 40 75 64 75 23 0 56
50 56 84 0 19 -11 47 -25 66 -31 43 -32 64 0 95 31 32 62 32 105 0 19 -14 46
-25 61 -25 29 0 79 34 79 54 0 7 9 25 21 40 24 30 63 34 97 10z"/>
</g>
</svg>
