<?xml version="1.0" standalone="no"?>
<!DOCTYPE svg PUBLIC "-//W3C//DTD SVG 20010904//EN"
 "http://www.w3.org/TR/2001/REC-SVG-20010904/DTD/svg10.dtd">
<svg version="1.0" xmlns="http://www.w3.org/2000/svg"
 width="512.000000pt" height="512.000000pt" viewBox="0 0 512.000000 512.000000"
 preserveAspectRatio="xMidYMid meet">

<g transform="translate(0.000000,512.000000) scale(0.100000,-0.100000)"
fill="#000000" stroke="none">
<path d="M1807 5106 c-63 -17 -115 -61 -150 -124 -22 -41 -29 -68 -34 -147 -3
-52 -9 -94 -12 -92 -87 49 -197 57 -267 20 -54 -29 -117 -101 -132 -151 -34
-112 -4 -217 87 -306 l49 -49 -41 -31 c-23 -18 -52 -46 -64 -64 l-22 -33 -46
86 c-26 47 -51 85 -55 85 -5 0 -39 -16 -75 -36 -50 -28 -65 -40 -60 -53 3 -9
51 -98 106 -199 54 -101 99 -187 99 -192 0 -5 -9 -12 -20 -15 -16 -5 -47 18
-148 111 -70 65 -143 133 -162 150 l-35 33 -57 -64 -57 -63 163 -150 163 -151
-27 -55 c-40 -79 -55 -181 -41 -270 15 -94 55 -171 146 -285 l75 -94 0 -713 0
-714 90 0 90 0 2 639 3 640 69 -45 c38 -24 79 -44 92 -44 12 0 71 32 130 71
59 39 113 73 120 76 7 2 63 -30 126 -71 62 -42 121 -76 131 -76 25 0 67 23
169 91 48 33 90 59 93 59 3 0 56 -34 118 -75 65 -44 122 -75 137 -75 15 0 72
31 137 75 62 41 116 75 120 75 5 0 26 -12 48 -27 103 -72 191 -123 210 -123
11 0 71 34 133 76 63 41 120 73 128 70 8 -3 48 -28 89 -56 l75 -51 0 -1299 0
-1300 -940 0 -940 0 0 -85 0 -85 1218 0 c1309 0 1271 -1 1373 50 99 51 188
167 213 280 14 61 16 223 16 1364 0 827 -4 1304 -10 1321 -8 22 27 122 245
704 153 409 259 705 266 746 49 284 -142 574 -422 640 -181 42 -378 -15 -511
-148 -78 -78 -108 -133 -193 -362 -38 -99 -70 -182 -72 -184 -2 -3 -39 31 -83
74 l-80 80 0 166 c0 149 -2 169 -19 190 l-19 24 -501 3 c-353 2 -507 -1 -522
-9 -31 -16 -49 -70 -49 -145 0 -36 -3 -64 -7 -62 -121 62 -196 69 -282 26
l-51 -25 0 91 c0 74 -4 100 -24 141 -30 66 -91 120 -157 139 -62 19 -78 19
-142 2z m114 -169 c35 -27 39 -54 39 -252 0 -195 0 -196 25 -220 17 -18 35
-25 61 -25 32 0 46 10 123 84 47 46 96 87 109 91 33 10 80 -13 98 -48 18 -34
12 -88 -13 -108 -8 -8 -83 -84 -164 -171 l-149 -157 0 -394 0 -393 -30 -29
-30 -28 -15 37 c-9 20 -51 110 -95 201 -65 135 -89 173 -134 218 -64 64 -155
112 -244 129 -56 10 -65 16 -97 56 -41 53 -47 105 -15 145 26 33 62 41 106 22
53 -22 91 -19 119 10 33 32 32 74 -2 117 -15 18 -75 83 -135 144 -101 104
-108 114 -108 151 0 75 66 122 127 89 15 -8 62 -49 103 -90 65 -67 79 -76 111
-76 25 0 42 7 60 26 24 25 24 29 27 235 l3 209 26 20 c29 22 70 26 94 7z
m2624 -21 c152 -69 251 -246 231 -409 -4 -30 -122 -357 -279 -777 l-273 -725
-62 -43 -63 -44 -115 76 c-74 49 -126 76 -144 76 -18 0 -69 -27 -143 -76
l-115 -75 -86 56 -85 57 29 77 c257 693 607 1616 626 1649 49 83 139 152 233
179 68 19 179 10 246 -21z m-1135 -221 l0 -85 -380 0 -380 0 0 85 0 85 380 0
380 0 0 -85z m-245 -385 l-130 -130 -350 0 -350 0 130 130 130 130 350 0 350
0 -130 -130z m424 6 c70 -70 83 -88 78 -108 -4 -12 -105 -286 -225 -607 -203
-541 -221 -585 -251 -603 l-31 -20 0 543 0 544 167 167 c92 93 170 168 173
168 3 0 43 -38 89 -84z m-600 -808 c-1 -499 -1 -503 -18 -438 -23 84 -43 130
-79 182 -128 185 -358 280 -567 235 -38 -8 -78 -18 -87 -22 -17 -7 -18 10 -18
269 l0 276 385 0 385 0 -1 -502z m-1446 174 c84 -37 113 -80 237 -343 77 -166
113 -253 112 -273 -3 -40 -6 -41 -40 -17 -50 35 -77 28 -200 -55 l-114 -75
-94 61 c-51 34 -98 68 -104 75 -8 10 14 32 95 95 58 45 105 86 105 91 0 9 -90
129 -97 129 -2 0 -52 -38 -111 -84 l-107 -85 -23 27 c-90 103 -89 271 2 380
32 37 102 81 149 93 49 12 139 3 190 -19z m1030 -382 c69 -26 148 -95 188
-164 16 -28 29 -54 29 -57 0 -3 -51 -40 -114 -83 l-114 -78 -113 76 c-79 53
-123 76 -144 76 -21 0 -65 -23 -144 -76 l-114 -76 5 65 c13 158 142 304 300
337 62 13 155 4 221 -20z m1391 -499 c59 -39 118 -71 130 -71 13 0 54 20 92
45 38 24 72 45 77 45 4 0 6 -552 5 -1227 l-3 -1228 -23 -47 c-13 -27 -42 -63
-64 -82 -67 -58 -107 -66 -320 -66 l-188 0 0 1300 0 1300 83 55 c45 30 87 53
93 51 6 -2 59 -36 118 -75z"/>
<path d="M4178 4353 c-43 -13 -78 -28 -78 -34 0 -18 152 -483 161 -493 11 -12
159 33 158 48 0 6 -37 122 -82 257 l-82 246 -77 -24z"/>
<path d="M3923 3753 c-40 -13 -73 -30 -73 -36 0 -16 156 -486 163 -493 6 -6
137 34 150 46 8 7 -152 511 -163 509 -3 0 -38 -12 -77 -26z"/>
<path d="M687 1703 c-4 -3 -7 -41 -7 -84 l0 -78 40 -11 c46 -12 95 -51 115
-91 8 -15 15 -53 15 -84 l0 -55 -38 19 c-188 96 -441 30 -559 -148 -66 -98
-78 -145 -77 -296 2 -208 47 -389 149 -602 63 -131 115 -190 208 -234 111 -52
222 -49 349 8 l59 26 57 -26 c164 -76 319 -56 442 59 121 113 234 415 260 691
20 216 -18 335 -145 452 -124 114 -320 146 -473 76 -30 -14 -56 -25 -57 -25
-1 0 -5 37 -7 83 -6 114 -49 194 -138 260 -54 39 -176 78 -193 60z m43 -534
c25 -11 70 -44 100 -74 93 -91 120 -92 214 -3 78 72 134 98 216 98 113 0 204
-59 252 -165 18 -42 22 -65 20 -145 -3 -184 -49 -365 -136 -538 -50 -100 -95
-145 -158 -163 -61 -16 -112 -6 -211 42 l-86 41 -93 -44 c-138 -64 -224 -59
-302 19 -121 120 -241 589 -193 754 25 86 92 159 172 187 52 18 155 14 205 -9z"/>
</g>
</svg>
