<?xml version="1.0" standalone="no"?>
<!DOCTYPE svg PUBLIC "-//W3C//DTD SVG 20010904//EN"
 "http://www.w3.org/TR/2001/REC-SVG-20010904/DTD/svg10.dtd">
<svg version="1.0" xmlns="http://www.w3.org/2000/svg"
 width="512.000000pt" height="512.000000pt" viewBox="0 0 512.000000 512.000000"
 preserveAspectRatio="xMidYMid meet">

<g transform="translate(0.000000,512.000000) scale(0.100000,-0.100000)"
fill="#000000" stroke="none">
<path d="M292 5105 c-140 -38 -252 -157 -281 -298 -8 -36 -10 -734 -9 -2348
l3 -2296 30 -49 c19 -30 49 -60 79 -79 l49 -30 1019 -3 1018 -2 50 21 c54 23
104 73 126 125 11 27 14 145 14 624 l0 590 170 0 170 0 0 -590 c0 -479 3 -597
14 -624 22 -52 72 -102 126 -125 l50 -21 1018 2 1019 3 49 30 c30 19 60 49 79
79 l30 49 3 1251 c2 932 0 1262 -9 1294 -15 54 -77 125 -131 148 -40 18 -80
19 -510 22 l-468 3 0 405 0 404 388 0 387 0 52 24 c58 27 107 85 123 147 7 25
10 227 8 567 l-3 529 -30 49 c-19 30 -49 60 -79 79 l-49 30 -859 3 -858 2 -50
-21 c-54 -23 -104 -73 -126 -125 -11 -25 -14 -91 -14 -264 l0 -230 -249 0
-249 0 -4 178 c-3 171 -4 179 -31 235 -40 80 -112 151 -194 190 l-68 32 -875
2 c-736 2 -883 0 -928 -12z m1809 -158 c50 -25 98 -74 120 -122 18 -38 19
-102 19 -1317 l0 -1278 -58 0 c-68 0 -95 -20 -95 -71 0 -46 32 -71 97 -77 l56
-4 0 -940 0 -939 -25 -24 -24 -25 -991 0 -992 0 -29 29 -29 29 0 415 0 415
109 4 c119 4 141 12 185 72 20 26 21 42 24 351 3 308 2 326 -17 364 -34 66
-71 81 -195 81 l-106 0 0 85 0 85 861 2 861 3 19 24 c25 30 24 76 -1 101 -20
20 -33 20 -880 20 l-860 0 0 84 0 83 103 5 c115 5 152 19 189 70 23 33 23 33
23 370 0 326 -1 337 -21 365 -39 53 -79 67 -192 71 l-102 4 2 757 c3 715 4
758 22 791 35 66 87 110 156 131 14 4 410 7 880 6 801 -2 857 -3 891 -20z
m2229 -542 l0 -565 -619 0 c-610 0 -619 0 -645 21 l-26 20 0 520 0 520 25 24
24 25 621 0 620 0 0 -565z m451 536 l29 -29 0 -136 0 -136 -165 0 -165 0 0
165 0 165 136 0 136 0 29 -29z m29 -741 c0 -304 -4 -338 -45 -354 -9 -3 -77
-6 -151 -6 l-134 0 0 325 0 325 165 0 165 0 0 -290z m-1920 -100 c0 -255 4
-277 63 -339 67 -71 67 -71 505 -71 l392 0 0 -404 0 -405 -472 -3 -473 -3 -55
-31 c-38 -22 -64 -46 -85 -79 l-30 -48 -5 -601 -5 -601 -165 0 -165 0 -3 1395
c-1 767 0 1401 3 1408 3 9 63 12 250 12 l245 0 0 -230z m-2572 -1257 l-3 -288
-82 -3 -83 -3 0 291 0 290 85 0 85 0 -2 -287z m4597 -127 c18 -8 38 -23 44
-34 7 -13 11 -101 11 -236 l0 -216 -328 0 -329 0 1 78 c1 88 -20 140 -76 187
-48 40 -89 55 -155 55 -73 0 -127 -24 -174 -77 -48 -53 -63 -100 -56 -179 l5
-64 -89 0 -89 0 0 134 c0 120 -2 136 -21 160 l-20 26 -279 0 c-246 0 -279 -2
-291 -16 -10 -12 -16 -59 -19 -158 l-5 -141 -82 -3 -83 -3 0 224 c0 219 0 224
23 244 12 12 31 23 42 26 11 3 451 5 978 6 805 1 963 -1 992 -13z m-1387 -398
l-3 -83 -162 -3 -163 -2 0 85 0 85 165 0 166 0 -3 -82z m597 76 c25 -10 47
-62 40 -95 -14 -62 -101 -83 -142 -34 -46 53 -14 135 52 135 18 0 41 -3 50 -6z
m845 -1250 l0 -936 -29 -29 -29 -29 -992 0 -991 0 -24 25 -25 24 0 941 0 940
1045 0 1045 0 0 -936z m-4650 331 l0 -285 -85 0 -85 0 0 285 0 285 85 0 85 0
0 -285z"/>
<path d="M972 4463 c-18 -9 -45 -32 -60 -51 -26 -34 -27 -40 -27 -168 0 -147
6 -165 75 -211 31 -22 42 -23 232 -23 222 0 250 6 291 64 20 28 22 46 25 161
3 122 2 132 -20 164 -50 74 -57 76 -281 79 -172 2 -207 0 -235 -15z m388 -218
l0 -85 -165 0 -165 0 0 85 0 85 165 0 165 0 0 -85z"/>
<path d="M3236 4779 l-26 -20 0 -355 c0 -341 1 -355 20 -374 19 -19 33 -20
450 -20 l431 0 25 25 25 25 -3 351 -3 351 -24 19 c-19 16 -40 19 -126 19 -88
0 -106 -3 -129 -21 -19 -15 -26 -30 -26 -54 0 -49 37 -75 106 -75 l54 0 0
-245 0 -245 -325 0 -325 0 0 245 0 245 133 0 c144 0 169 8 181 55 7 29 -15 79
-39 89 -9 3 -97 6 -194 6 -165 0 -180 -2 -205 -21z"/>
<path d="M4430 2530 c-25 -25 -26 -74 -1 -99 27 -27 70 -33 206 -29 114 3 117
4 141 31 29 34 30 56 3 91 l-20 26 -155 0 c-141 0 -156 -2 -174 -20z"/>
<path d="M3742 1810 c-245 -65 -449 -270 -512 -516 -27 -103 -27 -245 0 -350
54 -214 192 -380 395 -474 110 -52 172 -65 300 -65 132 1 206 18 325 77 120
60 248 188 308 308 60 121 77 193 76 330 0 92 -4 130 -23 190 -80 260 -276
447 -528 504 -98 22 -248 20 -341 -4z m321 -146 c78 -20 149 -56 212 -107 325
-264 267 -766 -108 -946 -227 -110 -475 -64 -654 120 -164 167 -200 429 -90
649 64 129 210 246 357 284 74 20 208 20 283 0z"/>
<path d="M3793 1488 c-34 -13 -83 -37 -107 -55 -147 -104 -199 -321 -118 -486
80 -162 257 -252 427 -217 205 42 346 233 320 436 -12 95 -81 136 -134 80 -21
-22 -22 -31 -16 -85 29 -253 -265 -391 -428 -201 -95 112 -68 287 58 365 44
27 57 30 134 31 103 0 124 6 139 40 17 36 15 49 -12 80 -21 26 -30 28 -112 31
-74 3 -100 0 -151 -19z"/>
</g>
</svg>
