<?xml version="1.0" standalone="no"?>
<!DOCTYPE svg PUBLIC "-//W3C//DTD SVG 20010904//EN"
 "http://www.w3.org/TR/2001/REC-SVG-20010904/DTD/svg10.dtd">
<svg version="1.0" xmlns="http://www.w3.org/2000/svg"
 width="512.000000pt" height="512.000000pt" viewBox="0 0 512.000000 512.000000"
 preserveAspectRatio="xMidYMid meet">

<g transform="translate(0.000000,512.000000) scale(0.100000,-0.100000)"
fill="#000000" stroke="none">
<path d="M2590 4624 c-46 -20 -87 -59 -113 -109 -19 -36 -22 -60 -25 -226 -5
-212 5 -278 48 -338 44 -60 98 -84 203 -89 l87 -4 0 -157 0 -157 -66 -28 c-93
-41 -174 -119 -220 -211 -30 -60 -37 -90 -46 -177 l-11 -106 -40 29 c-124 90
-304 101 -449 28 -64 -32 -205 -159 -220 -198 -17 -46 25 -101 78 -101 8 0 51
34 96 76 103 97 149 119 248 119 58 0 85 -5 121 -23 108 -53 169 -149 169
-268 0 -120 -21 -151 -297 -427 l-238 -237 -210 210 -210 210 69 69 c55 56 69
76 69 100 0 43 -28 71 -72 71 -35 0 -56 -19 -412 -377 -342 -343 -379 -384
-410 -448 -33 -67 -34 -74 -34 -190 0 -110 2 -125 27 -175 15 -30 36 -70 48
-87 l22 -33 -204 0 c-152 0 -219 -4 -263 -16 -235 -61 -381 -305 -320 -537 21
-81 50 -132 108 -195 98 -103 198 -142 363 -142 99 0 106 1 131 26 20 20 24
31 19 57 -10 55 -36 67 -140 67 -53 0 -114 6 -143 15 -64 19 -136 82 -171 149
-37 70 -38 189 -3 256 32 61 76 107 136 138 l50 27 362 3 363 3 0 -296 0 -295
-100 0 c-94 0 -103 -2 -125 -25 -32 -31 -33 -74 -2 -103 l23 -22 530 0 c416 0
540 3 580 14 287 76 421 403 271 658 -32 54 -121 139 -175 167 -85 43 -143 51
-387 51 l-230 0 485 485 485 485 5 -747 5 -748 26 -66 c44 -115 117 -197 219
-249 99 -51 81 -50 1085 -50 816 0 949 2 1000 15 159 42 289 179 324 343 17
82 15 1461 -3 1484 -31 41 -113 37 -130 -7 -3 -9 -6 -257 -6 -551 l0 -535
-667 3 -668 3 -63 34 c-70 38 -120 92 -154 167 l-23 49 0 535 c0 529 0 536 22
582 32 71 103 141 176 174 l62 29 658 3 657 3 0 -104 c0 -90 3 -106 20 -125
28 -30 82 -30 110 0 19 21 20 34 20 298 0 301 -6 348 -58 444 -41 75 -121 150
-202 188 l-70 33 0 158 0 157 68 0 c93 0 152 22 201 75 57 62 63 94 59 339
l-3 213 -30 48 c-22 36 -45 57 -84 77 l-53 28 -1162 0 c-1015 -1 -1165 -3
-1196 -16z m280 -374 l0 -240 -110 0 c-162 0 -164 3 -158 275 4 211 -1 205
159 205 l109 0 0 -240z m420 0 l0 -240 -135 0 -135 0 0 240 0 240 135 0 135 0
0 -240z m420 0 l0 -240 -135 0 -135 0 0 240 0 240 135 0 135 0 0 -240z m420 0
l0 -240 -135 0 -135 0 0 240 0 240 135 0 135 0 0 -240z m430 0 l0 -240 -140 0
-140 0 0 240 0 240 140 0 140 0 0 -240z m387 218 c23 -21 23 -26 23 -215 0
-193 0 -194 -25 -218 -23 -23 -31 -25 -130 -25 l-105 0 0 240 0 240 107 0 c96
0 109 -2 130 -22z m-307 -790 c0 -228 2 -231 124 -287 92 -43 143 -89 178
-160 18 -37 23 -67 26 -158 l4 -113 -628 0 c-391 0 -654 -4 -694 -11 -186 -30
-346 -177 -395 -364 -12 -49 -15 -143 -15 -562 0 -328 4 -520 11 -555 27 -131
129 -268 245 -330 107 -58 109 -58 822 -58 l654 0 -3 -112 c-4 -99 -8 -120
-32 -170 -30 -61 -74 -105 -140 -140 l-42 -23 -965 0 -965 0 -46 23 c-63 31
-117 86 -148 152 l-26 55 0 1145 c0 1100 1 1147 19 1200 26 75 101 149 181
179 122 46 135 74 135 301 l0 170 850 0 850 0 0 -182z m-3075 -2008 c-184
-184 -253 -247 -294 -267 -146 -72 -318 -15 -390 128 -26 52 -31 74 -31 133 0
123 16 146 293 424 l242 242 210 -210 210 -210 -240 -240z m451 -482 c101 -53
164 -155 164 -263 0 -82 -26 -143 -89 -206 -89 -88 -93 -89 -503 -89 l-348 0
0 295 0 296 363 -3 362 -3 51 -27z"/>
<path d="M3998 2604 c-49 -26 -58 -59 -58 -209 l0 -135 -130 0 c-217 0 -233
-15 -239 -219 -3 -149 5 -194 45 -232 24 -23 34 -24 172 -29 l147 -5 5 -146
c4 -129 7 -150 25 -169 40 -44 66 -50 218 -50 133 0 147 2 178 23 53 35 59 57
59 210 l0 137 146 0 146 0 33 33 c41 41 49 85 43 245 -7 185 -27 202 -238 202
l-130 0 0 135 c0 216 -10 225 -242 225 -116 -1 -160 -4 -180 -16z m274 -290
l3 -156 28 -24 c27 -23 34 -24 183 -24 l154 0 0 -89 0 -90 -156 -3 -156 -3
-29 -33 -29 -32 0 -150 0 -150 -89 0 -90 0 -3 155 c-3 154 -3 155 -31 182 -27
28 -28 28 -182 31 l-155 4 0 89 0 89 151 0 c84 0 159 5 170 10 40 22 49 61 49
210 l0 140 89 0 90 0 3 -156z"/>
</g>
</svg>
