<?xml version="1.0" standalone="no"?>
<!DOCTYPE svg PUBLIC "-//W3C//DTD SVG 20010904//EN"
 "http://www.w3.org/TR/2001/REC-SVG-20010904/DTD/svg10.dtd">
<svg version="1.0" xmlns="http://www.w3.org/2000/svg"
 width="512.000000pt" height="512.000000pt" viewBox="0 0 512.000000 512.000000"
 preserveAspectRatio="xMidYMid meet">

<g transform="translate(0.000000,512.000000) scale(0.100000,-0.100000)"
fill="#000000" stroke="none">
<path d="M2315 5109 c-797 -81 -1501 -518 -1927 -1196 -469 -746 -515 -1705
-119 -2493 453 -902 1383 -1455 2381 -1416 386 14 714 97 1050 265 610 305
1077 844 1290 1489 91 276 125 491 125 797 0 259 -17 403 -75 631 -49 193 -93
313 -185 499 -123 251 -262 448 -459 652 -399 413 -897 669 -1476 758 -125 19
-477 28 -605 14z m584 -184 c410 -60 818 -236 1145 -493 99 -77 330 -311 403
-407 154 -204 294 -461 367 -671 297 -865 92 -1800 -539 -2453 -935 -969
-2488 -971 -3425 -5 -191 196 -317 377 -435 619 -113 231 -185 461 -221 710
-25 165 -25 505 0 670 20 136 70 338 116 470 72 207 232 494 378 679 77 99
311 330 407 403 351 264 769 438 1165 482 52 6 111 13 130 15 72 9 409 -4 509
-19z"/>
<path d="M1442 2975 c-236 -51 -384 -305 -313 -534 26 -83 62 -141 121 -194
232 -209 590 -113 690 184 48 142 9 308 -99 422 -62 66 -129 103 -218 122 -82
18 -99 17 -181 0z m194 -180 c49 -20 105 -76 130 -130 60 -128 -2 -286 -135
-343 -45 -19 -145 -19 -191 0 -84 35 -148 121 -157 210 -20 194 172 337 353
263z"/>
<path d="M2487 2980 c-222 -39 -383 -262 -348 -481 38 -233 257 -396 482 -360
282 46 442 341 324 598 -79 174 -271 276 -458 243z m193 -198 c179 -89 178
-354 -3 -446 -153 -78 -330 6 -366 174 -28 131 53 260 187 296 60 17 113 10
182 -24z"/>
<path d="M3494 2975 c-80 -17 -136 -46 -197 -103 -92 -86 -137 -189 -137 -312
0 -312 325 -517 607 -384 65 31 146 103 179 161 154 262 7 587 -290 642 -72
13 -84 13 -162 -4z m191 -180 c45 -18 92 -62 123 -114 23 -39 27 -57 27 -121
0 -64 -4 -82 -27 -121 -52 -89 -124 -131 -223 -132 -102 0 -188 54 -231 148
-55 116 -18 236 99 325 49 37 161 44 232 15z"/>
</g>
</svg>
